<svg xmlns="http://www.w3.org/2000/svg" xmlns:xlink="http://www.w3.org/1999/xlink" width="500" zoomAndPan="magnify" viewBox="0 0 375 374.999991" height="500" preserveAspectRatio="xMidYMid meet" version="1.0"><defs><g/></defs><rect x="-37.5" width="450" fill="#ffffff" y="-37.499999" height="449.999989" fill-opacity="1"/><rect x="-37.5" width="450" fill="#ffda44" y="-37.499999" height="449.999989" fill-opacity="1"/><g fill="#ffffff" fill-opacity="1"><g transform="translate(113.675982, 223.299485)"><g><path d="M 52.125 -63.0625 C 44.03125 -66.898438 36.078125 -66.898438 35.367188 -66.898438 C 28.121094 -66.898438 21.164062 -71.160156 21.164062 -79.398438 C 21.164062 -88.488281 27.554688 -93.175781 35.367188 -93.175781 C 42.753906 -93.175781 49.003906 -89.339844 49.285156 -81.242188 C 49.285156 -80.816406 49.996094 -80.109375 50.847656 -80.109375 L 68.601562 -80.109375 C 69.597656 -80.109375 70.308594 -80.816406 70.164062 -81.242188 C 69.882812 -100.5625 54.824219 -113.628906 35.367188 -113.628906 C 17.1875 -113.628906 0 -100.703125 0 -79.398438 C 0 -66.1875 6.675781 -56.105469 18.464844 -50.707031 C 26.703125 -46.871094 34.371094 -46.871094 35.367188 -46.871094 C 41.757812 -46.585938 49.570312 -41.472656 49.570312 -33.09375 C 49.570312 -25.566406 42.894531 -20.453125 35.367188 -20.453125 C 35.367188 -20.453125 35.367188 -20.453125 35.226562 -20.453125 L 35.226562 0 C 35.367188 0 35.367188 0 35.367188 0 C 53.546875 0 70.589844 -11.789062 70.589844 -33.09375 C 70.589844 -46.445312 64.058594 -57.523438 52.125 -63.0625 Z M 52.125 -63.0625 "/></g></g></g><g fill="#ffffff" fill-opacity="1"><g transform="translate(195.00679, 273.282616)"><g><path d="M 23.4375 -72.4375 L 23.4375 -1.277344 C 23.4375 -0.710938 24.003906 0 25 0 L 43.320312 0 C 44.316406 0 45.023438 -0.710938 45.023438 -1.277344 L 45.023438 -72.4375 Z M 1.5625 -94.167969 L 66.757812 -94.167969 C 67.75 -94.167969 68.320312 -94.738281 68.320312 -95.449219 L 68.320312 -112.351562 C 68.320312 -112.917969 67.75 -113.628906 66.757812 -113.628906 L 1.5625 -113.628906 C 0.710938 -113.628906 0 -112.917969 0 -112.351562 L 0 -95.449219 C 0 -94.738281 0.710938 -94.167969 1.5625 -94.167969 Z M 1.5625 -94.167969 "/></g></g></g><g fill="#ffffff" fill-opacity="1"><g transform="translate(109.80894, 253.911444)"><g><path d="M 4.578125 -3.75 L 2.546875 -4.21875 C 1.734375 -4.414062 1.179688 -4.710938 0.890625 -5.109375 C 0.597656 -5.503906 0.453125 -6.066406 0.453125 -6.796875 C 0.453125 -7.960938 0.753906 -8.816406 1.359375 -9.359375 C 1.972656 -9.910156 2.925781 -10.1875 4.21875 -10.1875 C 4.757812 -10.1875 5.234375 -10.164062 5.640625 -10.125 C 6.054688 -10.082031 6.441406 -10.007812 6.796875 -9.90625 L 6.796875 -7.6875 C 5.984375 -7.820312 5.425781 -7.898438 5.125 -7.921875 C 4.820312 -7.941406 4.503906 -7.953125 4.171875 -7.953125 C 3.722656 -7.953125 3.394531 -7.875 3.1875 -7.71875 C 2.988281 -7.570312 2.890625 -7.320312 2.890625 -6.96875 C 2.890625 -6.800781 2.921875 -6.671875 2.984375 -6.578125 C 3.054688 -6.492188 3.179688 -6.429688 3.359375 -6.390625 L 5.28125 -5.9375 C 5.832031 -5.8125 6.226562 -5.6875 6.46875 -5.5625 C 6.71875 -5.4375 6.921875 -5.28125 7.078125 -5.09375 C 7.242188 -4.882812 7.363281 -4.617188 7.4375 -4.296875 C 7.519531 -3.984375 7.5625 -3.597656 7.5625 -3.140625 C 7.5625 -1.972656 7.253906 -1.128906 6.640625 -0.609375 C 6.023438 -0.0976562 5.066406 0.15625 3.765625 0.15625 C 3.097656 0.15625 2.460938 0.113281 1.859375 0.03125 C 1.265625 -0.0390625 0.804688 -0.132812 0.484375 -0.25 L 0.484375 -2.609375 C 0.910156 -2.472656 1.414062 -2.363281 2 -2.28125 C 2.582031 -2.195312 3.171875 -2.15625 3.765625 -2.15625 C 4.234375 -2.15625 4.554688 -2.210938 4.734375 -2.328125 C 4.921875 -2.453125 5.015625 -2.691406 5.015625 -3.046875 C 5.015625 -3.265625 4.984375 -3.425781 4.921875 -3.53125 C 4.859375 -3.632812 4.742188 -3.707031 4.578125 -3.75 Z M 4.578125 -3.75 "/></g></g></g><g fill="#ffffff" fill-opacity="1"><g transform="translate(126.351042, 253.911444)"><g><path d="M 3.25 -10.03125 L 3.25 0 L 0.765625 0 L 0.765625 -10.03125 Z M 3.25 -10.03125 "/></g></g></g><g fill="#ffffff" fill-opacity="1"><g transform="translate(139.08606, 253.911444)"><g><path d="M 10.8125 -10.03125 L 10.8125 0 L 8.5 0 L 8.5 -6.015625 L 6.78125 -1.921875 L 4.765625 -1.921875 L 3.09375 -6.015625 L 3.09375 0 L 0.765625 0 L 0.765625 -10.03125 L 3.796875 -10.03125 L 5.828125 -4.96875 L 7.90625 -10.03125 Z M 10.8125 -10.03125 "/></g></g></g><g fill="#ffffff" fill-opacity="1"><g transform="translate(159.38726, 253.911444)"><g><path d="M 3.25 -2.8125 L 3.25 0 L 0.765625 0 L 0.765625 -10.03125 L 4.4375 -10.03125 C 5.976562 -10.03125 7.070312 -9.757812 7.71875 -9.21875 C 8.375 -8.6875 8.703125 -7.785156 8.703125 -6.515625 C 8.703125 -5.253906 8.359375 -4.320312 7.671875 -3.71875 C 6.984375 -3.113281 5.921875 -2.8125 4.484375 -2.8125 Z M 6.1875 -6.515625 C 6.1875 -6.984375 6.054688 -7.3125 5.796875 -7.5 C 5.546875 -7.695312 5.09375 -7.796875 4.4375 -7.796875 L 3.25 -7.796875 L 3.25 -4.984375 L 4.4375 -4.984375 C 5.101562 -4.984375 5.5625 -5.09375 5.8125 -5.3125 C 6.0625 -5.539062 6.1875 -5.941406 6.1875 -6.515625 Z M 6.1875 -6.515625 "/></g></g></g><g fill="#ffffff" fill-opacity="1"><g transform="translate(177.081095, 253.911444)"><g><path d="M 7.171875 -2.3125 L 7.171875 0 L 0.765625 0 L 0.765625 -10.03125 L 3.25 -10.03125 L 3.25 -2.3125 Z M 7.171875 -2.3125 "/></g></g></g><g fill="#ffffff" fill-opacity="1"><g transform="translate(208.92043, 148.029689)"><g><path d="M 2.640625 0 L 0 -10.03125 L 2.6875 -10.03125 L 3.75 -5.078125 C 3.789062 -4.898438 3.832031 -4.664062 3.875 -4.375 C 3.925781 -4.09375 4.007812 -3.539062 4.125 -2.71875 C 4.15625 -2.925781 4.21875 -3.316406 4.3125 -3.890625 C 4.40625 -4.460938 4.472656 -4.851562 4.515625 -5.0625 L 5.53125 -10.03125 L 8.125 -10.03125 L 9.1875 -5.078125 C 9.226562 -4.898438 9.269531 -4.664062 9.3125 -4.375 C 9.363281 -4.09375 9.445312 -3.539062 9.5625 -2.71875 C 9.59375 -2.925781 9.65625 -3.316406 9.75 -3.890625 C 9.84375 -4.460938 9.910156 -4.851562 9.953125 -5.0625 L 10.96875 -10.03125 L 13.578125 -10.03125 L 10.953125 0 L 8.09375 0 L 7.453125 -3.046875 C 7.347656 -3.554688 7.238281 -4.09375 7.125 -4.65625 C 7.019531 -5.21875 6.910156 -5.84375 6.796875 -6.53125 C 6.628906 -5.582031 6.492188 -4.863281 6.390625 -4.375 C 6.296875 -3.894531 6.207031 -3.453125 6.125 -3.046875 L 5.484375 0 Z M 2.640625 0 "/></g></g></g><g fill="#ffffff" fill-opacity="1"><g transform="translate(223.317165, 148.029689)"><g><path d="M 7.6875 -2.3125 L 7.6875 0 L 0.765625 0 L 0.765625 -10.03125 L 7.53125 -10.03125 L 7.53125 -7.796875 L 3.25 -7.796875 L 3.25 -6.125 L 6.9375 -6.125 L 6.9375 -4.046875 L 3.25 -4.046875 L 3.25 -2.3125 Z M 7.6875 -2.3125 "/></g></g></g><g fill="#ffffff" fill-opacity="1"><g transform="translate(232.211226, 148.029689)"><g><path d="M 7.6875 -2.3125 L 7.6875 0 L 0.765625 0 L 0.765625 -10.03125 L 7.53125 -10.03125 L 7.53125 -7.796875 L 3.25 -7.796875 L 3.25 -6.125 L 6.9375 -6.125 L 6.9375 -4.046875 L 3.25 -4.046875 L 3.25 -2.3125 Z M 7.6875 -2.3125 "/></g></g></g><g fill="#ffffff" fill-opacity="1"><g transform="translate(241.105288, 148.029689)"><g><path d="M 8.140625 -10.03125 L 8.140625 -7.796875 L 5.40625 -7.796875 L 5.40625 0 L 2.921875 0 L 2.921875 -7.796875 L 0.1875 -7.796875 L 0.1875 -10.03125 Z M 8.140625 -10.03125 "/></g></g></g></svg>